PathFileType	4	(X/Y/Z)	c:/Users/goper/Files/vsCode/490R/osim_files/A03/A03_Slow_01.trc
DataRate	CameraRate	NumFrames	NumMarkers	Units                	OrigDataRate	OrigDataStartFrame	OrigNumFrames
250.00	250.00	4	36	mm	250.0	1417	2832
                Frame#	Time	LPSIS			LASIS			LTH1			LTH2			LTH3			LTH4			LLFE			LMFE			LSH1			LSH2			LSH3			LSH4			LLMAL			LMMAL			LCAL			LMTP5			LTOE			LMTP1			RPSIS			RASIS			RTH1			RTH2			RTH3			RTH4			RLFE			RMFE			RSH1			RSH2			RSH3			RSH4			RLMAL			RMMAL			RCAL			RMTP1			RTOE			RMTP5		
		X1	Y1	Z1	X2	Y2	Z2	X3	Y3	Z3	X4	Y4	Z4	X5	Y5	Z5	X6	Y6	Z6	X7	Y7	Z7	X8	Y8	Z8	X9	Y9	Z9	X10	Y10	Z10	X11	Y11	Z11	X12	Y12	Z12	X13	Y13	Z13	X14	Y14	Z14	X15	Y15	Z15	X16	Y16	Z16	X17	Y17	Z17	X18	Y18	Z18	X19	Y19	Z19	X20	Y20	Z20	X21	Y21	Z21	X22	Y22	Z22	X23	Y23	Z23	X24	Y24	Z24	X25	Y25	Z25	X26	Y26	Z26	X27	Y27	Z27	X28	Y28	Z28	X29	Y29	Z29	X30	Y30	Z30	X31	Y31	Z31	X32	Y32	Z32	X33	Y33	Z33	X34	Y34	Z34	X35	Y35	Z35	X36	Y36	Z36

1417	5.66400	471.53140	1064.27856	251.68321	232.95065	982.89655	373.54611	140.82304	653.47058	417.36337	114.35233	620.53015	411.01941	95.12173	686.86285	393.44836	75.44129	647.28601	388.29510	117.06532	570.54956	398.70352	89.64083	572.78986	244.61569	122.06589	475.85489	398.04675	101.04395	431.85855	396.71033	62.84899	494.82666	394.58081	52.93615	448.40436	389.72855	-26.42427	130.90686	370.25345	-37.97851	140.07657	272.21753	28.97326	89.69782	315.25861	-187.51666	136.41571	386.32092	-202.97787	175.84851	316.73602	-185.30754	143.67860	271.79160	471.75180	1076.08362	169.42346	238.67577	966.42719	69.84089	379.90756	607.66351	45.97679	381.94427	563.85388	54.00988	318.99399	599.53796	50.97518	328.17093	556.90240	58.56801	362.92838	527.82910	70.69416	321.52917	530.54828	187.80742	429.76932	473.79657	72.60292	442.73013	434.36719	62.13329	371.15079	450.01913	66.93501	392.69098	408.97760	58.52474	513.10449	127.07805	114.66556	0.00000	0.00000	0.00000	569.84161	87.21331	175.96857	355.13434	49.13086	199.44305	332.43524	70.50799	151.34877	369.76614	42.41489	83.14422
1418	5.66800	467.15903	1063.58887	252.54890	228.37099	982.05438	373.85233	137.05682	652.05096	417.34082	110.71753	619.14569	410.91302	91.29113	685.42645	393.46838	71.70184	645.88141	388.23138	113.70397	569.39960	398.45041	85.92980	571.61609	244.42720	118.13101	474.66531	397.93884	96.75015	430.79803	396.69641	58.94020	493.98233	394.53995	48.75545	447.63309	389.84521	-32.57376	130.73039	371.01248	-44.41694	139.82843	272.88568	22.29298	89.06695	315.97867	-193.71268	137.24904	387.36566	-208.55240	177.08916	317.48376	-192.04326	144.45764	272.77390	467.58603	1075.50830	170.33905	234.91504	965.70575	70.04302	377.73276	607.46790	46.11124	379.93115	563.65210	54.13303	316.88092	599.03760	50.89822	326.18307	556.45557	58.50056	361.07236	527.46735	70.66407	319.23346	529.90002	187.68163	427.94858	473.48639	72.74912	441.39008	434.42712	62.27998	369.74057	449.69901	66.90699	391.49420	408.79172	58.46992	513.29694	127.46308	114.49364	0.00000	0.00000	0.00000	569.76227	87.37800	175.82945	355.12686	49.11653	199.40475	332.48410	70.47185	151.29855	369.80438	42.31540	83.08583
1419	5.67200	462.79593	1062.90186	253.40930	223.74379	981.20276	374.14578	133.25665	650.68341	417.28714	106.99966	617.73621	410.77426	87.48050	684.00842	393.46851	67.96867	644.40216	388.10403	110.21549	568.21722	398.21707	82.19355	570.43048	244.26067	114.09866	473.43320	397.78665	92.63593	429.74539	396.63870	55.20033	493.08063	394.50653	44.67230	446.81055	389.87323	-41.20245	131.91628	371.49200	-50.47813	139.40494	273.59860	16.01808	88.27482	316.59048	-199.50746	137.75967	388.48166	-214.85188	177.20815	318.89633	-198.04103	144.85373	273.85416	463.39920	1074.90039	171.25322	231.16246	965.02283	70.28679	375.62067	607.32257	46.25132	377.85019	563.45715	54.27602	314.62418	598.60437	50.88508	324.17932	555.98065	58.44912	360.76633	527.14099	69.90165	316.96786	529.25409	187.57368	426.59113	473.84079	72.98597	440.06076	434.50839	62.45475	368.40234	449.43353	66.84860	390.29041	408.61639	58.40271	512.89447	127.43821	114.48180	0.00000	0.00000	0.00000	569.65753	87.57506	175.70984	355.19678	49.12774	199.37694	332.52820	70.43774	151.26501	369.79889	42.22206	83.05034
1420	5.67600	458.39005	1062.20398	254.21693	219.06732	980.34033	374.42453	129.50885	649.36505	417.14648	103.26830	616.27795	410.60129	83.57533	682.54529	393.37814	64.21771	642.93237	387.96805	106.85230	567.08429	397.97238	78.45132	569.15210	244.02629	110.37941	472.27747	397.68024	88.66012	428.67252	396.65707	51.40273	492.14185	394.45233	40.70384	445.90863	389.96420	-45.94423	131.26230	372.44382	-56.11978	138.74945	274.35440	10.32923	87.41402	317.24899	-204.85431	137.94939	389.59970	-219.65215	177.78966	319.65201	-203.67728	144.88762	274.91092	459.19489	1074.32227	172.17744	227.31642	964.36328	70.55320	373.50381	607.17053	46.40260	375.85843	563.27917	54.39208	313.02216	598.28613	50.63688	322.19409	555.55084	58.34729	358.17767	526.63440	70.11473	314.71280	528.60693	187.46521	425.21280	473.96326	73.09532	437.89529	434.28607	62.38872	367.11890	449.15698	66.76991	389.07901	408.45288	58.32134	513.09113	127.86919	114.22360	0.00000	0.00000	0.00000	569.61700	87.79899	175.50296	355.24255	49.15794	199.33170	332.59180	70.39048	151.21080	370.10681	42.19707	83.08235
